<?xml version="1.0" encoding="UTF-8" standalone="no"?>
<svg
   xmlns:dc="http://purl.org/dc/elements/1.1/"
   xmlns:cc="http://creativecommons.org/ns#"
   xmlns:rdf="http://www.w3.org/1999/02/22-rdf-syntax-ns#"
   xmlns:svg="http://www.w3.org/2000/svg"
   xmlns="http://www.w3.org/2000/svg"
   id="svg37"
   xml:space="preserve"
   style="enable-background:new 0 0 1376.4 447.7;"
   viewBox="0 0 1376.4 447.7"
   y="0px"
   x="0px"
   version="1.1"><metadata
   id="metadata43"><rdf:RDF><cc:Work
       rdf:about=""><dc:format>image/svg+xml</dc:format><dc:type
         rdf:resource="http://purl.org/dc/dcmitype/StillImage" /></cc:Work></rdf:RDF></metadata><defs
   id="defs41" />
<style
   id="style2"
   type="text/css">
	.st0{fill:#FFFFFF;}
</style>
<g
   id="Layer_2">
</g>
<g
   id="Layer_1">
	<g
   id="g33">
		<g
   id="g17">
			<polygon
   id="polygon5"
   points="109.6,365.4 89.2,344.6 89.2,332.5 112.3,319.1 112.3,294.3 134.7,294.3 134.7,340.7 158.9,340.7      158.9,344.6 138.5,365.4    "
   class="st0" />
			<polygon
   id="polygon7"
   points="108.4,271.7 81,255.6 81,120 93.7,120 93.7,152.1 108.4,152.1    "
   class="st0" />
			<path
   id="path9"
   d="M214.6,205.7c-3.9-28.5-21.9-49.5-48.4-56.5l0-49.7h101.5v133h-9.9v-26.7L214.6,205.7z"
   class="st0" />
			<path
   id="path11"
   d="M253.7,209.9v126.8l-115.1,0v-42.3c48.6,1.7,80.7-30.3,76.5-84.4H253.7z"
   class="st0" />
			<polygon
   id="polygon13"
   points="74.2,336.7 40.1,316.5 40.2,276.3 74.3,256.3 108.4,276.4 108.3,316.6    "
   class="st0" />
			<rect
   id="rect15"
   height="65.7"
   width="64.4"
   class="st0"
   y="82.3"
   x="97.7" />
		</g>
		<g
   id="g31">
			<path
   id="path19"
   d="M440.3,100c76.1,0,111.4,38.9,111.4,122.6c0,42.8-11.9,73.8-36.2,93.2c-23.1,18.5-45.1,20.8-73.8,20.8H331.9     V100H440.3z M381.6,141.2v154.2h57.7c44.1,0,58-18.8,58-77.1c0-58-13.8-77.1-58-77.1H381.6z"
   class="st0" />
			<path
   id="path21"
   d="M662.3,162.9c47.4,0,71.5,22.1,71.5,64.9v108.7H610.6c-34.6,0-53.7-18.1-53.7-50.1     c0-40.2,20.8-55.4,69.2-55.4h60.3c0-1.6,0-3,0-4.3c0-22.1-12.5-28-41.5-28h-76.4v-35.9H662.3z M686.7,301.7v-35.9h-54     c-19.4,0-28.3,4-28.3,19.4c0,14.5,8.2,16.5,25,16.5H686.7z"
   class="st0" />
			<path
   id="path23"
   d="M781.1,162.9l48.1,123.2l51.1-123.2h49.4l-77.1,173.6h-49.4l-73.5-173.6H781.1z"
   class="st0" />
			<path
   id="path25"
   d="M942.1,143.2V100h48.1v43.2H942.1z M942.1,336.6V162.9h48.1v173.6H942.1z"
   class="st0" />
			<path
   id="path27"
   d="M1003.3,249.9c0-56.7,29.7-87,87.3-87h66.9v36.2h-60.6c-29.3,0-41.8,4.9-42.8,32.6h103.5V268h-103.5     c1,28.7,12.8,32.3,42.5,32.3h61v36.2h-66.9C1033,336.6,1003.3,306.9,1003.3,249.9z"
   class="st0" />
			<path
   id="path29"
   d="M1267.1,300.3c16.5,0,24.7-4.6,24.7-16.8c0-12.2-8.2-17.1-24.7-17.1h-39.5c-42.2,0-60-8.6-60-49.1     c0-37.2,19.4-54.4,61.3-54.4h98.5v36.2h-81.1c-20.8,0-31.6,1.3-31.6,15.8c0,10.9,6.9,15.5,21.7,15.5h41.5     c38.2,0,58.3,18.5,58.3,51.7c0,32.6-20.1,54.4-47.4,54.4h-118.3v-36.2H1267.1z"
   class="st0" />
		</g>
	</g>
</g>
<g
   id="Layer_3">
</g>
</svg>